<svg xmlns="http://www.w3.org/2000/svg" width="1440" height="900"><path d="M618,468L594,660L783,616Z" fill="#5caddb" stroke="#5caddb" stroke-width="1.51"/><path d="M783,616L842,378L618,468Z" fill="#59afdd" stroke="#59afdd" stroke-width="1.51"/><path d="M618,468L391,601L594,660Z" fill="#6cb4df" stroke="#6cb4df" stroke-width="1.51"/><path d="M594,660L895,870L783,616Z" fill="#4ea2d5" stroke="#4ea2d5" stroke-width="1.51"/><path d="M391,601L525,847L594,660Z" fill="#6bafdc" stroke="#6bafdc" stroke-width="1.51"/><path d="M842,378L661,226L618,468Z" fill="#6ebae2" stroke="#6ebae2" stroke-width="1.51"/><path d="M618,468L295,518L391,601Z" fill="#79bce2" stroke="#79bce2" stroke-width="1.51"/><path d="M783,616L1134,483L842,378Z" fill="#54a8d9" stroke="#54a8d9" stroke-width="1.51"/><path d="M525,847L895,870L594,660Z" fill="#52a2d5" stroke="#52a2d5" stroke-width="1.51"/><path d="M313,160L295,518L618,468Z" fill="#8ac7e8" stroke="#8ac7e8" stroke-width="1.51"/><path d="M391,601L315,840L525,847Z" fill="#72b0dc" stroke="#72b0dc" stroke-width="1.51"/><path d="M895,870L1040,700L783,616Z" fill="#499cd2" stroke="#499cd2" stroke-width="1.51"/><path d="M878,68L794,175L1142,219Z" fill="#8ac2e5" stroke="#8ac2e5" stroke-width="1.51"/><path d="M842,378L794,175L661,226Z" fill="#7dc0e4" stroke="#7dc0e4" stroke-width="1.51"/><path d="M144,670L315,840L391,601Z" fill="#82bae1" stroke="#82bae1" stroke-width="1.51"/><path d="M988,1070L998,963L895,870Z" fill="#3e92cc" stroke="#3e92cc" stroke-width="1.51"/><path d="M1040,700L1134,483L783,616Z" fill="#4da1d5" stroke="#4da1d5" stroke-width="1.51"/><path d="M1040,700L1222,520L1134,483Z" fill="#4a9dd3" stroke="#4a9dd3" stroke-width="1.51"/><path d="M895,870L998,963L1040,700Z" fill="#4194cd" stroke="#4194cd" stroke-width="1.51"/><path d="M756,1126L895,870L525,847Z" fill="#469ad0" stroke="#469ad0" stroke-width="1.51"/><path d="M295,518L144,670L391,601Z" fill="#87c0e4" stroke="#87c0e4" stroke-width="1.51"/><path d="M794,175L535,21L661,226Z" fill="#97ceeb" stroke="#97ceeb" stroke-width="1.51"/><path d="M1142,219L794,175L842,378Z" fill="#7abae1" stroke="#7abae1" stroke-width="1.51"/><path d="M300,1198L559,1106L315,840Z" fill="#6fa9d8" stroke="#6fa9d8" stroke-width="1.51"/><path d="M315,840L559,1106L525,847Z" fill="#67a6d7" stroke="#67a6d7" stroke-width="1.51"/><path d="M423,38L313,160L661,226Z" fill="#aad8f0" stroke="#aad8f0" stroke-width="1.51"/><path d="M661,226L313,160L618,468Z" fill="#8ec9e9" stroke="#8ec9e9" stroke-width="1.51"/><path d="M295,518L65,412L144,670Z" fill="#94c9e8" stroke="#94c9e8" stroke-width="1.51"/><path d="M1134,483L1142,219L842,378Z" fill="#65aedc" stroke="#65aedc" stroke-width="1.51"/><path d="M1282,656L1222,520L1040,700Z" fill="#4699d0" stroke="#4699d0" stroke-width="1.51"/><path d="M559,1106L756,1126L525,847Z" fill="#559fd3" stroke="#559fd3" stroke-width="1.51"/><path d="M878,68L535,21L794,175Z" fill="#99cfeb" stroke="#99cfeb" stroke-width="1.51"/><path d="M1350,244L1142,219L1134,483Z" fill="#68acda" stroke="#68acda" stroke-width="1.51"/><path d="M1287,936L1282,656L1040,700Z" fill="#3e90cb" stroke="#3e90cb" stroke-width="1.51"/><path d="M756,1126L988,1070L895,870Z" fill="#4194cd" stroke="#4194cd" stroke-width="1.51"/><path d="M535,21L423,38L661,226Z" fill="#aad8ef" stroke="#aad8ef" stroke-width="1.51"/><path d="M1222,520L1350,244L1134,483Z" fill="#54a3d6" stroke="#54a3d6" stroke-width="1.51"/><path d="M1287,936L1040,700L998,963Z" fill="#3b8eca" stroke="#3b8eca" stroke-width="1.51"/><path d="M175,147L65,412L313,160Z" fill="#b5def3" stroke="#b5def3" stroke-width="1.51"/><path d="M313,160L65,412L295,518Z" fill="#9fd2ed" stroke="#9fd2ed" stroke-width="1.51"/><path d="M144,670L136,945L315,840Z" fill="#86b7df" stroke="#86b7df" stroke-width="1.51"/><path d="M-51,984L136,945L144,670Z" fill="#90bbe1" stroke="#90bbe1" stroke-width="1.51"/><path d="M423,38L175,147L313,160Z" fill="#bde2f4" stroke="#bde2f4" stroke-width="1.51"/><path d="M1142,219L1038,-21L878,68Z" fill="#93c5e6" stroke="#93c5e6" stroke-width="1.51"/><path d="M878,68L570,-225L535,21Z" fill="#add9f0" stroke="#add9f0" stroke-width="1.51"/><path d="M988,1070L1287,936L998,963Z" fill="#3a8dc9" stroke="#3a8dc9" stroke-width="1.51"/><path d="M559,1106L300,1198L756,1126Z" fill="#5ea2d5" stroke="#5ea2d5" stroke-width="1.51"/><path d="M136,945L300,1198L315,840Z" fill="#7eb1dc" stroke="#7eb1dc" stroke-width="1.51"/><path d="M1142,219L1365,50L1038,-21Z" fill="#90bfe3" stroke="#90bfe3" stroke-width="1.51"/><path d="M1590,495L1350,244L1222,520Z" fill="#4f9ed3" stroke="#4f9ed3" stroke-width="1.51"/><path d="M1590,495L1222,520L1282,656Z" fill="#4396cf" stroke="#4396cf" stroke-width="1.51"/><path d="M65,412L-114,494L144,670Z" fill="#a1d1ec" stroke="#a1d1ec" stroke-width="1.51"/><path d="M-103,202L-114,494L65,412Z" fill="#b3ddf2" stroke="#b3ddf2" stroke-width="1.51"/><path d="M136,945L102,1219L300,1198Z" fill="#85b4dd" stroke="#85b4dd" stroke-width="1.51"/><path d="M-114,494L-120,635L144,670Z" fill="#a2ceea" stroke="#a2ceea" stroke-width="1.51"/><path d="M869,-245L570,-225L878,68Z" fill="#a6d4ee" stroke="#a6d4ee" stroke-width="1.51"/><path d="M535,21L316,-174L423,38Z" fill="#c2e6f6" stroke="#c2e6f6" stroke-width="1.51"/><path d="M423,38L316,-174L175,147Z" fill="#cdebf8" stroke="#cdebf8" stroke-width="1.51"/><path d="M570,-225L316,-174L535,21Z" fill="#bee3f4" stroke="#bee3f4" stroke-width="1.51"/><path d="M175,147L-103,202L65,412Z" fill="#c0e4f5" stroke="#c0e4f5" stroke-width="1.51"/><path d="M1287,936L1508,852L1282,656Z" fill="#3589c7" stroke="#3589c7" stroke-width="1.51"/><path d="M988,1070L1297,1124L1287,936Z" fill="#378ac7" stroke="#378ac7" stroke-width="1.51"/><path d="M756,1126L1297,1124L988,1070Z" fill="#3d90cb" stroke="#3d90cb" stroke-width="1.51"/><path d="M300,1198L1297,1124L756,1126Z" fill="#4498cf" stroke="#4498cf" stroke-width="1.51"/><path d="M-120,635L-51,984L144,670Z" fill="#9bc4e5" stroke="#9bc4e5" stroke-width="1.51"/><path d="M1038,-21L869,-245L878,68Z" fill="#a2cfeb" stroke="#a2cfeb" stroke-width="1.51"/><path d="M1005,-288L869,-245L1038,-21Z" fill="#a1cdea" stroke="#a1cdea" stroke-width="1.51"/><path d="M-305,731L-243,866L-120,635Z" fill="#9cc5e6" stroke="#9cc5e6" stroke-width="1.51"/><path d="M76,-57L-103,202L175,147Z" fill="#d6f1fb" stroke="#d6f1fb" stroke-width="1.51"/><path d="M1813,1165L1593,1136L1297,1124Z" fill="#2d82c3" stroke="#2d82c3" stroke-width="1.51"/><path d="M-14,1192L102,1219L136,945Z" fill="#8fb9e0" stroke="#8fb9e0" stroke-width="1.51"/><path d="M1350,244L1365,50L1142,219Z" fill="#7fb4de" stroke="#7fb4de" stroke-width="1.51"/><path d="M1460,23L1365,50L1350,244Z" fill="#87b6de" stroke="#87b6de" stroke-width="1.51"/><path d="M316,-174L76,-57L175,147Z" fill="#d8f2fb" stroke="#d8f2fb" stroke-width="1.51"/><path d="M1297,1124L1508,852L1287,936Z" fill="#3084c4" stroke="#3084c4" stroke-width="1.51"/><path d="M1508,852L1559,629L1282,656Z" fill="#388cc9" stroke="#388cc9" stroke-width="1.51"/><path d="M1559,629L1590,495L1282,656Z" fill="#3f92cc" stroke="#3f92cc" stroke-width="1.51"/><path d="M1679,292L1590,495L1717,494Z" fill="#4b9cd1" stroke="#4b9cd1" stroke-width="1.51"/><path d="M869,-245L1005,-288L570,-225Z" fill="#a5d3ed" stroke="#a5d3ed" stroke-width="1.51"/><path d="M1297,-203L1005,-288L1038,-21Z" fill="#9ec8e7" stroke="#9ec8e7" stroke-width="1.51"/><path d="M-365,1186L-14,1192L-51,984Z" fill="#96bde1" stroke="#96bde1" stroke-width="1.51"/><path d="M-51,984L-14,1192L136,945Z" fill="#94bbe1" stroke="#94bbe1" stroke-width="1.51"/><path d="M1365,50L1297,-203L1038,-21Z" fill="#9bc4e5" stroke="#9bc4e5" stroke-width="1.51"/><path d="M1598,164L1460,23L1350,244Z" fill="#80b2dc" stroke="#80b2dc" stroke-width="1.51"/><path d="M-120,635L-243,866L-51,984Z" fill="#99c1e3" stroke="#99c1e3" stroke-width="1.51"/><path d="M-305,731L-120,635L-377,503Z" fill="#a1ccea" stroke="#a1ccea" stroke-width="1.51"/><path d="M-377,503L-120,635L-114,494Z" fill="#a4d1ec" stroke="#a4d1ec" stroke-width="1.51"/><path d="M1460,23L1297,-203L1365,50Z" fill="#98bfe2" stroke="#98bfe2" stroke-width="1.51"/><path d="M-103,202L-251,141L-114,494Z" fill="#c1e5f5" stroke="#c1e5f5" stroke-width="1.51"/><path d="M76,-57L-149,-2L-103,202Z" fill="#e2f8fe" stroke="#e2f8fe" stroke-width="1.51"/><path d="M-63,-277L-149,-2L76,-57Z" fill="#e8fcff" stroke="#e8fcff" stroke-width="1.51"/><path d="M1460,23L1488,-177L1297,-203Z" fill="#97bee2" stroke="#97bee2" stroke-width="1.51"/><path d="M1679,292L1598,164L1350,244Z" fill="#71aad9" stroke="#71aad9" stroke-width="1.51"/><path d="M-149,-2L-251,141L-103,202Z" fill="#d8f2fb" stroke="#d8f2fb" stroke-width="1.51"/><path d="M1590,495L1679,292L1350,244Z" fill="#5da2d5" stroke="#5da2d5" stroke-width="1.51"/><path d="M1717,494L1590,495L1559,629Z" fill="#4295ce" stroke="#4295ce" stroke-width="1.51"/><path d="M1805,663L1717,494L1559,629Z" fill="#3f92cc" stroke="#3f92cc" stroke-width="1.51"/><path d="M316,-174L116,-314L76,-57Z" fill="#d9f3fb" stroke="#d9f3fb" stroke-width="1.51"/><path d="M570,-225L116,-314L316,-174Z" fill="#caeaf8" stroke="#caeaf8" stroke-width="1.51"/><path d="M1005,-288L116,-314L570,-225Z" fill="#b6dff2" stroke="#b6dff2" stroke-width="1.51"/><path d="M-251,141L-377,503L-114,494Z" fill="#b2dcf1" stroke="#b2dcf1" stroke-width="1.51"/><path d="M1508,852L1805,663L1559,629Z" fill="#388bc8" stroke="#388bc8" stroke-width="1.51"/><path d="M1297,1124L1593,1136L1508,852Z" fill="#2d82c3" stroke="#2d82c3" stroke-width="1.51"/><path d="M1813,1165L1297,1124L300,1198Z" fill="#398cc9" stroke="#398cc9" stroke-width="1.51"/><path d="M1767,20L1488,-177L1460,23Z" fill="#96bde1" stroke="#96bde1" stroke-width="1.51"/><path d="M1297,-203L1820,-319L1005,-288Z" fill="#98bfe2" stroke="#98bfe2" stroke-width="1.51"/><path d="M1767,20L1460,23L1598,164Z" fill="#8cb7df" stroke="#8cb7df" stroke-width="1.51"/><path d="M-251,141L-293,29L-377,503Z" fill="#c9e9f7" stroke="#c9e9f7" stroke-width="1.51"/><path d="M-149,-2L-293,29L-251,141Z" fill="#e0f7fd" stroke="#e0f7fd" stroke-width="1.51"/><path d="M-335,-297L-293,29L-149,-2Z" fill="#e8fcff" stroke="#e8fcff" stroke-width="1.51"/><path d="M116,-314L-63,-277L76,-57Z" fill="#e4f9fe" stroke="#e4f9fe" stroke-width="1.51"/><path d="M1803,885L1805,663L1508,852Z" fill="#3387c6" stroke="#3387c6" stroke-width="1.51"/><path d="M1717,494L1767,20L1679,292Z" fill="#6ba8d7" stroke="#6ba8d7" stroke-width="1.51"/><path d="M1593,1136L1803,885L1508,852Z" fill="#2d82c3" stroke="#2d82c3" stroke-width="1.51"/><path d="M-305,731L-365,1186L-243,866Z" fill="#96bde1" stroke="#96bde1" stroke-width="1.51"/><path d="M-243,866L-365,1186L-51,984Z" fill="#96bde1" stroke="#96bde1" stroke-width="1.51"/><path d="M-14,1192L-365,1186L102,1219Z" fill="#96bde1" stroke="#96bde1" stroke-width="1.51"/><path d="M-377,503L-365,1186L-305,731Z" fill="#9ac2e4" stroke="#9ac2e4" stroke-width="1.51"/><path d="M1805,663L1767,20L1717,494Z" fill="#539ed3" stroke="#539ed3" stroke-width="1.51"/><path d="M1679,292L1767,20L1598,164Z" fill="#7db0db" stroke="#7db0db" stroke-width="1.51"/><path d="M1593,1136L1813,1165L1803,885Z" fill="#2d82c3" stroke="#2d82c3" stroke-width="1.51"/><path d="M1803,885L1813,1165L1805,663Z" fill="#2d82c3" stroke="#2d82c3" stroke-width="1.51"/><path d="M102,1219L1813,1165L300,1198Z" fill="#4699d0" stroke="#4699d0" stroke-width="1.51"/><path d="M116,-314L-335,-297L-63,-277Z" fill="#e8fcff" stroke="#e8fcff" stroke-width="1.51"/><path d="M-63,-277L-335,-297L-149,-2Z" fill="#e8fcff" stroke="#e8fcff" stroke-width="1.51"/><path d="M-293,29L-335,-297L-377,503Z" fill="#ddf5fc" stroke="#ddf5fc" stroke-width="1.51"/><path d="M1767,20L1820,-319L1488,-177Z" fill="#96bde1" stroke="#96bde1" stroke-width="1.51"/><path d="M1488,-177L1820,-319L1297,-203Z" fill="#96bde1" stroke="#96bde1" stroke-width="1.51"/><path d="M1005,-288L1820,-319L116,-314Z" fill="#a1cdea" stroke="#a1cdea" stroke-width="1.51"/><path d="M1805,663L1820,-319L1767,20Z" fill="#83b3dd" stroke="#83b3dd" stroke-width="1.51"/><path d="M1813,1165L1820,-319L1805,663Z" fill="#4397cf" stroke="#4397cf" stroke-width="1.51"/></svg>